# Blender v2.79 (sub 0) OBJ File: ''
# www.blender.org
mtllib hericles3.mtl
o Thruster_Blades_Thruster_Blades_vertex_colors.001
v -0.053098 -0.062358 0.035464
v -0.757269 -0.054757 -0.065644
v -0.720580 -0.239204 0.065643
v 0.239203 -0.720580 0.065643
v -0.037292 -0.072919 -0.035465
v 0.054757 -0.757269 -0.065645
v 0.720579 0.239203 0.065643
v 0.072918 -0.037292 -0.035465
v 0.757268 0.054757 -0.065644
v -0.239204 0.720579 0.065643
v 0.037291 0.072918 -0.035465
v -0.054757 0.757268 -0.065644
v 0.006548 -0.081639 0.035464
v -0.496751 -0.574189 -0.065644
v -0.340385 -0.678670 0.065643
v 0.678669 -0.340384 0.065643
v 0.025192 -0.077931 -0.035465
v 0.574189 -0.496750 -0.065644
v 0.340384 0.678669 0.065644
v 0.077930 0.025192 -0.035465
v 0.496750 0.574188 -0.065644
v -0.081639 -0.006549 0.035464
v -0.574189 0.496750 -0.065644
v -0.678669 0.340384 0.065643
v -0.025192 -0.077931 0.035464
v -0.678670 -0.340383 -0.065644
v -0.574190 -0.496750 0.065643
v 0.077930 -0.025193 0.035464
v 0.340383 -0.678670 -0.065644
v 0.496749 -0.574190 0.065643
v 0.025192 0.077930 0.035464
v 0.678670 0.340383 -0.065644
v 0.574189 0.496749 0.065644
v -0.496749 0.574189 0.065643
v 0.006548 0.081639 -0.035465
v -0.340383 0.678669 -0.065644
v 0.037291 -0.072919 0.035464
v -0.239205 -0.720580 -0.065644
v -0.054759 -0.757268 0.065643
v 0.757268 -0.054759 0.065643
v 0.053097 -0.062358 -0.035465
v 0.720579 -0.239205 -0.065644
v 0.054758 0.757268 0.065644
v 0.062358 0.053097 -0.035465
v 0.239205 0.720579 -0.065644
v -0.072919 -0.037292 0.035464
v -0.720579 0.239204 -0.065644
v -0.757268 0.054758 0.065643
v -0.039912 -0.071519 0.035464
v -0.732035 -0.201441 -0.065644
v -0.660068 -0.375186 0.065643
v 0.071518 -0.039912 0.035464
v 0.201441 -0.732035 -0.065644
v 0.375185 -0.660068 0.065643
v 0.660067 0.375185 0.065643
v 0.078793 -0.022350 -0.035465
v 0.732035 0.201441 -0.065644
v -0.375186 0.660067 0.065643
v 0.022349 0.078792 -0.035465
v -0.201441 0.732034 -0.065644
v -0.201442 -0.732035 0.065643
v -0.071518 -0.039912 -0.035465
v -0.375187 -0.660067 -0.065644
v 0.078793 0.022349 0.035464
v 0.660067 -0.375187 -0.065644
v 0.732034 -0.201442 0.065643
v -0.022349 0.078793 0.035464
v 0.375186 0.660067 -0.065644
v 0.201442 0.732034 0.065644
v -0.732035 0.201441 0.065643
v -0.039912 0.071518 -0.035465
v -0.660067 0.375186 -0.065644
v -0.009505 -0.081348 0.035464
v -0.599224 -0.466245 -0.065644
v -0.466246 -0.599223 0.065643
v 0.599223 -0.466246 0.065643
v 0.009504 -0.081348 -0.035465
v 0.466245 -0.599224 -0.065644
v 0.009505 0.081347 0.035464
v 0.599224 0.466245 -0.065644
v 0.466246 0.599223 0.065644
v -0.599223 0.466245 0.065643
v -0.009505 0.081347 -0.035465
v -0.466245 0.599224 -0.065644
v 0.050801 -0.064242 0.035464
v -0.094031 -0.753400 -0.065644
v 0.094029 -0.753400 0.065643
v 0.753400 0.094030 0.065643
v 0.064242 -0.050801 -0.035465
v 0.753400 -0.094030 -0.065644
v -0.050801 0.064242 0.035464
v 0.094030 0.753400 -0.065644
v -0.094029 0.753400 0.065644
v -0.064242 -0.050801 0.035464
v -0.753400 0.094030 -0.065644
v -0.753400 -0.094030 0.065643
v -0.072919 0.037291 -0.035465
v 0.062357 -0.053098 0.035464
v 0.053097 0.062357 0.035464
v -0.062358 0.053097 0.035464
v -0.077931 -0.025192 -0.035465
v 0.081639 0.006548 0.035464
v -0.006548 0.081638 0.035464
v -0.025192 0.077930 -0.035465
v -0.081639 0.006548 -0.035465
v -0.006548 -0.081639 -0.035465
v 0.081639 -0.006549 -0.035465
v -0.077931 0.025192 0.035464
v -0.062358 -0.053097 -0.035465
v 0.072918 0.037291 0.035464
v -0.037292 0.072918 0.035464
v -0.053097 0.062357 -0.035465
v -0.078793 0.022349 -0.035465
v -0.022350 -0.078793 -0.035465
v 0.039911 0.071518 0.035464
v -0.071518 0.039911 0.035464
v 0.022349 -0.078793 0.035464
v 0.039911 -0.071519 -0.035465
v 0.071518 0.039911 -0.035465
v -0.078793 -0.022350 0.035464
v -0.081348 -0.009505 -0.035465
v 0.081347 -0.009505 0.035464
v 0.081348 0.009504 -0.035465
v -0.081348 0.009504 0.035464
v -0.050801 -0.064242 -0.035465
v 0.064242 0.050801 0.035464
v 0.050801 0.064242 -0.035465
v -0.064242 0.050801 -0.035465
vt 0.664502 0.990499
vt 0.141653 0.921424
vt 0.679053 0.920962
vt 0.679053 0.920962
vt 0.156386 0.990749
vt 0.141653 0.921424
vt 0.679053 0.920962
vt 0.156386 0.990749
vt 0.141653 0.921424
vt 0.679053 0.920962
vt 0.156386 0.990749
vt 0.141653 0.921424
vt 0.664502 0.990499
vt 0.141653 0.921424
vt 0.679053 0.920962
vt 0.679053 0.920962
vt 0.156386 0.990749
vt 0.141653 0.921424
vt 0.679053 0.920962
vt 0.156386 0.990749
vt 0.141653 0.921424
vt 0.664502 0.990499
vt 0.141653 0.921424
vt 0.679053 0.920962
vt 0.664502 0.990499
vt 0.141653 0.921424
vt 0.679053 0.920962
vt 0.664502 0.990499
vt 0.141653 0.921424
vt 0.679053 0.920962
vt 0.664502 0.990499
vt 0.141653 0.921424
vt 0.679053 0.920962
vt 0.679053 0.920962
vt 0.156386 0.990749
vt 0.141653 0.921424
vt 0.664502 0.990499
vt 0.141653 0.921424
vt 0.679053 0.920962
vt 0.679053 0.920962
vt 0.156386 0.990749
vt 0.141653 0.921424
vt 0.679053 0.920962
vt 0.156386 0.990749
vt 0.141653 0.921424
vt 0.664502 0.990499
vt 0.141653 0.921424
vt 0.679053 0.920962
vt 0.664502 0.990499
vt 0.141653 0.921424
vt 0.679053 0.920962
vt 0.664502 0.990499
vt 0.141653 0.921424
vt 0.679053 0.920962
vt 0.679053 0.920962
vt 0.156386 0.990749
vt 0.141653 0.921424
vt 0.679053 0.920962
vt 0.156386 0.990749
vt 0.141653 0.921424
vt 0.679053 0.920962
vt 0.156386 0.990749
vt 0.141653 0.921424
vt 0.664502 0.990499
vt 0.141653 0.921424
vt 0.679053 0.920962
vt 0.664502 0.990499
vt 0.141653 0.921424
vt 0.679053 0.920962
vt 0.679053 0.920962
vt 0.156386 0.990749
vt 0.141653 0.921424
vt 0.664502 0.990499
vt 0.141653 0.921424
vt 0.679053 0.920962
vt 0.679053 0.920962
vt 0.156386 0.990749
vt 0.141653 0.921424
vt 0.664502 0.990499
vt 0.141653 0.921424
vt 0.679053 0.920962
vt 0.679053 0.920962
vt 0.156386 0.990749
vt 0.141653 0.921424
vt 0.664502 0.990499
vt 0.141653 0.921424
vt 0.679053 0.920962
vt 0.679053 0.920962
vt 0.156386 0.990749
vt 0.141653 0.921424
vt 0.664502 0.990499
vt 0.141653 0.921424
vt 0.679053 0.920962
vt 0.664502 0.990499
vt 0.141653 0.921424
vt 0.679053 0.920962
vt 0.156386 0.990749
vt 0.664502 0.990499
vt 0.664502 0.990499
vt 0.664502 0.990499
vt 0.156386 0.990749
vt 0.664502 0.990499
vt 0.664502 0.990499
vt 0.156386 0.990749
vt 0.156386 0.990749
vt 0.156386 0.990749
vt 0.156386 0.990749
vt 0.664502 0.990499
vt 0.156386 0.990749
vt 0.664502 0.990499
vt 0.664502 0.990499
vt 0.156386 0.990749
vt 0.156386 0.990749
vt 0.156386 0.990749
vt 0.664502 0.990499
vt 0.664502 0.990499
vt 0.664502 0.990499
vt 0.156386 0.990749
vt 0.156386 0.990749
vt 0.664502 0.990499
vt 0.156386 0.990749
vt 0.664502 0.990499
vt 0.156386 0.990749
vt 0.664502 0.990499
vt 0.156386 0.990749
vt 0.664502 0.990499
vt 0.156386 0.990749
vt 0.156386 0.990749
vn -0.1117 0.5614 0.8200
vn -0.5614 -0.1117 0.8200
vn 0.1117 -0.5614 0.8200
vn 0.5614 0.1117 0.8200
vn -0.4760 0.3180 0.8200
vn -0.3180 -0.4760 0.8200
vn 0.4760 -0.3180 0.8200
vn 0.3180 0.4760 0.8200
vn -0.3180 0.4760 0.8200
vn -0.4760 -0.3180 0.8200
vn 0.3180 -0.4760 0.8200
vn 0.4760 0.3180 0.8200
vn -0.5614 0.1117 0.8200
vn -0.1117 -0.5614 0.8200
vn 0.5614 -0.1117 0.8200
vn 0.1117 0.5614 0.8200
vn -0.2191 0.5288 0.8200
vn -0.2191 0.5289 0.8200
vn -0.5288 -0.2191 0.8200
vn -0.5289 -0.2191 0.8200
vn 0.2191 -0.5289 0.8200
vn 0.2191 -0.5288 0.8200
vn 0.5289 0.2191 0.8200
vn -0.5288 0.2191 0.8200
vn -0.5289 0.2191 0.8200
vn -0.2191 -0.5288 0.8200
vn 0.5289 -0.2191 0.8200
vn 0.2191 0.5288 0.8200
vn -0.4048 0.4048 0.8200
vn -0.4048 -0.4048 0.8200
vn 0.4048 -0.4048 0.8200
vn 0.4048 0.4048 0.8200
vn -0.5724 0.0000 0.8200
vn 0.0000 -0.5724 0.8200
vn 0.5724 0.0000 0.8200
vn -0.0000 0.5724 0.8200
vn -0.4759 0.3180 0.8200
vn -0.3180 -0.4759 0.8200
vn 0.3180 0.4759 0.8200
vn -0.3180 0.4759 0.8200
vn 0.3180 -0.4759 0.8200
vn 0.5288 -0.2191 0.8200
g Thruster_Blades_Thruster_Blades_vertex_colors.001_Thruster_Blades_Thruster_Blades_vertex_colors.001_colors.001
usemtl colors.001
s 1
f 1/1/1 2/2/1 3/3/1
f 4/4/2 5/5/2 6/6/2
f 7/7/3 8/8/3 9/9/3
f 10/10/4 11/11/4 12/12/4
f 13/13/5 14/14/5 15/15/5
f 16/16/6 17/17/6 18/18/6
f 19/19/7 20/20/7 21/21/7
f 22/22/8 23/23/8 24/24/8
f 25/25/9 26/26/9 27/27/9
f 28/28/10 29/29/10 30/30/10
f 31/31/11 32/32/11 33/33/11
f 34/34/12 35/35/12 36/36/12
f 37/37/13 38/38/13 39/39/13
f 40/40/14 41/41/14 42/42/14
f 43/43/15 44/44/15 45/45/15
f 46/46/16 47/47/16 48/48/16
f 49/49/17 50/50/17 51/51/18
f 52/52/19 53/53/20 54/54/20
f 55/55/21 56/56/22 57/57/21
f 58/58/23 59/59/23 60/60/23
f 61/61/24 62/62/25 63/63/24
f 64/64/26 65/65/26 66/66/26
f 67/67/27 68/68/27 69/69/27
f 70/70/28 71/71/28 72/72/28
f 73/73/29 74/74/29 75/75/29
f 76/76/30 77/77/30 78/78/30
f 79/79/31 80/80/31 81/81/31
f 82/82/32 83/83/32 84/84/32
f 85/85/33 86/86/33 87/87/33
f 88/88/34 89/89/34 90/90/34
f 91/91/35 92/92/35 93/93/35
f 94/94/36 95/95/36 96/96/36
f 1/1/1 97/97/1 2/2/1
f 4/4/2 98/98/2 5/5/2
f 7/7/3 99/99/3 8/8/3
f 10/10/4 100/100/4 11/11/4
f 13/13/5 101/101/37 14/14/5
f 16/16/6 102/102/38 17/17/6
f 19/19/7 103/103/7 20/20/7
f 22/22/8 104/104/39 23/23/8
f 25/25/9 105/105/40 26/26/9
f 28/28/10 106/106/10 29/29/10
f 31/31/11 107/107/41 32/32/11
f 34/34/12 108/108/12 35/35/12
f 37/37/13 109/109/13 38/38/13
f 40/40/14 110/110/14 41/41/14
f 43/43/15 111/111/15 44/44/15
f 46/46/16 112/112/16 47/47/16
f 49/49/17 113/113/17 50/50/17
f 52/52/19 114/114/19 53/53/20
f 55/55/21 115/115/22 56/56/22
f 58/58/23 116/116/23 59/59/23
f 61/61/24 117/117/25 62/62/25
f 64/64/26 118/118/26 65/65/26
f 67/67/27 119/119/42 68/68/27
f 70/70/28 120/120/28 71/71/28
f 73/73/29 121/121/29 74/74/29
f 76/76/30 122/122/30 77/77/30
f 79/79/31 123/123/31 80/80/31
f 82/82/32 124/124/32 83/83/32
f 85/85/33 125/125/33 86/86/33
f 88/88/34 126/126/34 89/89/34
f 91/91/35 127/127/35 92/92/35
f 94/94/36 128/128/36 95/95/36
